<svg xmlns="http://www.w3.org/2000/svg" xmlns:xlink="http://www.w3.org/1999/xlink" viewBox="0 0 1030.94 248.72"><defs><style>.cls-1{fill:none;}.cls-2{clip-path:url(#clip-path);}.cls-3{fill:#2624cc;}.cls-4{fill:#2724cc;}.cls-5{fill:#2824cc;}.cls-6{fill:#2923cc;}.cls-7{fill:#2a23cc;}.cls-8{fill:#2b23cc;}.cls-9{fill:#2c23cc;}.cls-10{fill:#2d23cd;}.cls-11{fill:#2e22cd;}.cls-12{fill:#2f22cd;}.cls-13{fill:#3022cd;}.cls-14{fill:#3122cd;}.cls-15{fill:#3222cd;}.cls-16{fill:#3321cd;}.cls-17{fill:#3421cd;}.cls-18{fill:#3521cd;}.cls-19{fill:#3621cd;}.cls-20{fill:#3721cd;}.cls-21{fill:#3820cd;}.cls-22{fill:#3920cd;}.cls-23{fill:#3a20cd;}.cls-24{fill:#3b20ce;}.cls-25{fill:#3c20ce;}.cls-26{fill:#3d1fce;}.cls-27{fill:#3e1fce;}.cls-28{fill:#3f1fce;}.cls-29{fill:#401fce;}.cls-30{fill:#411fce;}.cls-31{fill:#421ece;}.cls-32{fill:#431ece;}.cls-33{fill:#441ece;}.cls-34{fill:#451ece;}.cls-35{fill:#461ece;}.cls-36{fill:#471dce;}.cls-37{fill:#481dce;}.cls-38{fill:#491dcf;}.cls-39{fill:#4a1dcf;}.cls-40{fill:#4b1dcf;}.cls-41{fill:#4c1ccf;}.cls-42{fill:#4d1ccf;}.cls-43{fill:#4e1ccf;}.cls-44{fill:#4f1ccf;}.cls-45{fill:#501ccf;}.cls-46{fill:#511bcf;}.cls-47{fill:#521bcf;}.cls-48{fill:#531bcf;}.cls-49{fill:#541bcf;}.cls-50{fill:#551bcf;}.cls-51{fill:#561acf;}.cls-52{fill:#571ad0;}.cls-53{fill:#581ad0;}.cls-54{fill:#591ad0;}.cls-55{fill:#5a1ad0;}.cls-56{fill:#5b19d0;}.cls-57{fill:#5c19d0;}.cls-58{fill:#5d19d0;}.cls-59{fill:#5e19d0;}.cls-60{fill:#5f19d0;}.cls-61{fill:#6018d0;}.cls-62{fill:#6118d0;}.cls-63{fill:#6218d0;}.cls-64{fill:#6318d0;}.cls-65{fill:#6418d0;}.cls-66{fill:#6618d1;}.cls-67{fill:#6717d1;}.cls-68{fill:#6817d1;}.cls-69{fill:#6917d1;}.cls-70{fill:#6a17d1;}.cls-71{fill:#6b17d1;}.cls-72{fill:#6c16d1;}.cls-73{fill:#6d16d1;}.cls-74{fill:#6e16d1;}.cls-75{fill:#6f16d1;}.cls-76{fill:#7016d1;}.cls-77{fill:#7115d1;}.cls-78{fill:#7215d1;}.cls-79{fill:#7315d1;}.cls-80{fill:#7415d2;}.cls-81{fill:#7515d2;}.cls-82{fill:#7614d2;}.cls-83{fill:#7714d2;}.cls-84{fill:#7814d2;}.cls-85{fill:#7914d2;}.cls-86{fill:#7a14d2;}.cls-87{fill:#7b13d2;}.cls-88{fill:#7c13d2;}.cls-89{fill:#7d13d2;}.cls-90{fill:#7e13d2;}.cls-91{fill:#7f13d2;}.cls-92{fill:#8012d2;}.cls-93{fill:#8112d2;}.cls-94{fill:#8212d3;}.cls-95{fill:#8312d3;}.cls-96{fill:#8412d3;}.cls-97{fill:#8511d3;}.cls-98{fill:#8611d3;}.cls-99{fill:#8711d3;}.cls-100{fill:#8811d3;}.cls-101{fill:#8911d3;}.cls-102{fill:#8a10d3;}.cls-103{fill:#8b10d3;}.cls-104{fill:#8c10d3;}.cls-105{fill:#8d10d3;}.cls-106{fill:#8e10d3;}.cls-107{fill:#8f0fd3;}.cls-108{fill:#900fd4;}.cls-109{fill:#910fd4;}.cls-110{fill:#920fd4;}.cls-111{fill:#930fd4;}.cls-112{fill:#940ed4;}.cls-113{fill:#950ed4;}.cls-114{fill:#960ed4;}.cls-115{fill:#970ed4;}.cls-116{fill:#980ed4;}.cls-117{fill:#990dd4;}.cls-118{fill:#9a0dd4;}.cls-119{fill:#9b0dd4;}.cls-120{fill:#9c0dd4;}.cls-121{fill:#9d0dd4;}.cls-122{fill:#9e0cd5;}.cls-123{fill:#9f0cd5;}.cls-124{fill:#a00cd5;}.cls-125{fill:#a10cd5;}.cls-126{fill:#a20cd5;}.cls-127{fill:#a30bd5;}.cls-128{fill:#a40bd5;}.cls-129{fill:#a50bd5;}.cls-130{clip-path:url(#clip-path-2);}.cls-131{clip-path:url(#clip-path-3);}.cls-132{fill:#fa393f;}.cls-133{fill:#f93940;}.cls-134{fill:#f93841;}.cls-135{fill:#f83842;}.cls-136{fill:#f73743;}.cls-137{fill:#f63744;}.cls-138{fill:#f63745;}.cls-139{fill:#f53646;}.cls-140{fill:#f43647;}.cls-141{fill:#f43548;}.cls-142{fill:#f33549;}.cls-143{fill:#f2344a;}.cls-144{fill:#f1344b;}.cls-145{fill:#f1344c;}.cls-146{fill:#f0334d;}.cls-147{fill:#ef334e;}.cls-148{fill:#ee324f;}.cls-149{fill:#ee3250;}.cls-150{fill:#ed3251;}.cls-151{fill:#ec3152;}.cls-152{fill:#ec3153;}.cls-153{fill:#eb3054;}.cls-154{fill:#ea3055;}.cls-155{fill:#e92f56;}.cls-156{fill:#e92f57;}.cls-157{fill:#e82f58;}.cls-158{fill:#e72e59;}.cls-159{fill:#e72e5a;}.cls-160{fill:#e62d5b;}.cls-161{fill:#e52d5c;}.cls-162{fill:#e42d5d;}.cls-163{fill:#e42c5e;}.cls-164{fill:#e32c5f;}.cls-165{fill:#e22b60;}.cls-166{fill:#e22b61;}.cls-167{fill:#e12a62;}.cls-168{fill:#e02a63;}.cls-169{fill:#df2a64;}.cls-170{fill:#df2965;}.cls-171{fill:#de2966;}.cls-172{fill:#dd2867;}.cls-173{fill:#dd2868;}.cls-174{fill:#dc2869;}.cls-175{fill:#db276a;}.cls-176{fill:#da276b;}.cls-177{fill:#da266d;}.cls-178{fill:#d9266e;}.cls-179{fill:#d8256f;}.cls-180{fill:#d72570;}.cls-181{fill:#d72571;}.cls-182{fill:#d62472;}.cls-183{fill:#d52473;}.cls-184{fill:#d52374;}.cls-185{fill:#d42375;}.cls-186{fill:#d32376;}.cls-187{fill:#d22277;}.cls-188{fill:#d22278;}.cls-189{fill:#d12179;}.cls-190{fill:#d0217a;}.cls-191{fill:#d0207b;}.cls-192{fill:#cf207c;}.cls-193{fill:#ce207d;}.cls-194{fill:#cd1f7e;}.cls-195{fill:#cd1f7f;}.cls-196{fill:#cc1e80;}.cls-197{fill:#cb1e81;}.cls-198{fill:#cb1e82;}.cls-199{fill:#ca1d83;}.cls-200{fill:#c91d84;}.cls-201{fill:#c81c85;}.cls-202{fill:#c81c86;}.cls-203{fill:#c71b87;}.cls-204{fill:#c61b88;}.cls-205{fill:#c61b89;}.cls-206{fill:#c51a8a;}.cls-207{fill:#c41a8b;}.cls-208{fill:#c3198c;}.cls-209{fill:#c3198d;}.cls-210{fill:#c2198e;}.cls-211{fill:#c1188f;}.cls-212{fill:#c01890;}.cls-213{fill:#c01791;}.cls-214{fill:#bf1792;}.cls-215{fill:#be1693;}.cls-216{fill:#be1694;}.cls-217{fill:#bd1695;}.cls-218{fill:#bc1596;}.cls-219{fill:#bb1597;}.cls-220{fill:#bb1498;}.cls-221{fill:#ba1499;}.cls-222{clip-path:url(#clip-path-4);}.cls-223{fill:#f62bba;}.cls-224{fill:#f62cb9;}.cls-225{fill:#f62cb8;}.cls-226{fill:#f62db7;}.cls-227{fill:#f62db6;}.cls-228{fill:#f62eb5;}.cls-229{fill:#f62eb4;}.cls-230{fill:#f72fb3;}.cls-231{fill:#f72fb2;}.cls-232{fill:#f730b1;}.cls-233{fill:#f730b0;}.cls-234{fill:#f731af;}.cls-235{fill:#f731ae;}.cls-236{fill:#f732ad;}.cls-237{fill:#f732ac;}.cls-238{fill:#f733ab;}.cls-239{fill:#f733aa;}.cls-240{fill:#f734a9;}.cls-241{fill:#f734a8;}.cls-242{fill:#f735a7;}.cls-243{fill:#f835a6;}.cls-244{fill:#f836a5;}.cls-245{fill:#f836a4;}.cls-246{fill:#f837a3;}.cls-247{fill:#f838a2;}.cls-248{fill:#f838a1;}.cls-249{fill:#f839a0;}.cls-250{fill:#f8399f;}.cls-251{fill:#f83a9e;}.cls-252{fill:#f83a9d;}.cls-253{fill:#f83b9c;}.cls-254{fill:#f83b9b;}.cls-255{fill:#f93c9a;}.cls-256{fill:#f93c99;}.cls-257{fill:#f93d98;}.cls-258{fill:#f93d97;}.cls-259{fill:#f93e96;}.cls-260{fill:#f93e95;}.cls-261{fill:#f93f94;}.cls-262{fill:#f93f93;}.cls-263{fill:#f94092;}.cls-264{fill:#f94091;}.cls-265{fill:#f94190;}.cls-266{fill:#f9418f;}.cls-267{fill:#f9428e;}.cls-268{fill:#fa428d;}.cls-269{fill:#fa438c;}.cls-270{fill:#fa448b;}.cls-271{fill:#fa448a;}.cls-272{fill:#fa4589;}.cls-273{fill:#fa4588;}.cls-274{fill:#fa4687;}.cls-275{fill:#fa4686;}.cls-276{fill:#fa4785;}.cls-277{fill:#fa4784;}.cls-278{fill:#fa4883;}.cls-279{fill:#fa4882;}.cls-280{fill:#fa4981;}.cls-281{fill:#fb497f;}.cls-282{fill:#fb4a7e;}.cls-283{fill:#fb4a7d;}.cls-284{fill:#fb4b7c;}.cls-285{fill:#fb4b7b;}.cls-286{fill:#fb4c7a;}.cls-287{fill:#fb4c79;}.cls-288{fill:#fb4d78;}.cls-289{fill:#fb4d77;}.cls-290{fill:#fb4e76;}.cls-291{fill:#fb4e75;}.cls-292{fill:#fb4f74;}.cls-293{fill:#fb5073;}.cls-294{fill:#fc5072;}.cls-295{fill:#fc5171;}.cls-296{fill:#fc5170;}.cls-297{fill:#fc526f;}.cls-298{fill:#fc526e;}.cls-299{fill:#fc536d;}.cls-300{fill:#fc536c;}.cls-301{fill:#fc546b;}.cls-302{fill:#fc546a;}.cls-303{fill:#fc5569;}.cls-304{fill:#fc5568;}.cls-305{fill:#fc5667;}.cls-306{fill:#fc5666;}.cls-307{fill:#fd5765;}.cls-308{fill:#fd5764;}.cls-309{fill:#fd5863;}.cls-310{fill:#fd5862;}.cls-311{fill:#fd5961;}.cls-312{fill:#fd5960;}.cls-313{fill:#fd5a5f;}.cls-314{fill:#fd5a5e;}.cls-315{fill:#fd5b5d;}.cls-316{fill:#fd5c5c;}.cls-317{fill:#fd5c5b;}.cls-318{fill:#fd5d5a;}.cls-319{fill:#fe5d59;}.cls-320{fill:#fe5e58;}.cls-321{fill:#fe5e57;}.cls-322{fill:#fe5f56;}.cls-323{fill:#fe5f55;}.cls-324{fill:#fe6054;}.cls-325{fill:#fe6053;}.cls-326{fill:#fe6152;}.cls-327{fill:#fe6151;}.cls-328{fill:#fe6250;}.cls-329{fill:#fe624f;}.cls-330{fill:#fe634e;}.cls-331{fill:#fe634d;}.cls-332{fill:#ff644c;}.cls-333{fill:#ff644b;}.cls-334{fill:#ff654a;}.cls-335{fill:#ff6549;}.cls-336{fill:#ff6648;}.cls-337{fill:#ff6647;}.cls-338{fill:#ff6746;}.cls-339{font-size:178px;fill:#182432;font-family:NexaBold, Nexa Bold;}.cls-340{letter-spacing:-0.01em;}</style><clipPath id="clip-path" transform="translate(0 0)"><polygon class="cls-1" points="180.36 181.27 94.73 237.1 0 237.1 0 0 180.36 181.27"/></clipPath><clipPath id="clip-path-2" transform="translate(0 0)"><polygon class="cls-1" points="180.36 181.27 94.73 237.1 0 152.26 0 0 180.36 181.27"/></clipPath><clipPath id="clip-path-3" transform="translate(0 0)"><polygon class="cls-1" points="67.4 67.45 153.03 11.62 247.76 11.62 247.76 248.72 67.4 67.45"/></clipPath><clipPath id="clip-path-4" transform="translate(0 0)"><polygon class="cls-1" points="67.4 67.45 153.03 11.62 247.76 96.46 247.76 248.72 67.4 67.45"/></clipPath></defs><g id="Layer_2" data-name="Layer 2"><g id="Layer_1-2" data-name="Layer 1"><g class="cls-2"><polygon class="cls-3" points="180.36 183.79 126.88 224.93 0 59.98 0 0 180.36 0 180.36 183.79"/><polygon class="cls-3" points="126.88 224.93 126.4 225.3 0 60.97 0 59.98 126.88 224.93"/><polygon class="cls-4" points="126.4 225.3 125.92 225.67 0 61.97 0 60.97 126.4 225.3"/><polygon class="cls-5" points="125.92 225.67 125.44 226.03 0 62.96 0 61.97 125.92 225.67"/><polygon class="cls-6" points="125.44 226.03 124.97 226.4 0 63.95 0 62.96 125.44 226.03"/><polygon class="cls-7" points="124.97 226.4 124.48 226.77 0 64.94 0 63.95 124.97 226.4"/><polygon class="cls-8" points="124.48 226.77 124.01 227.14 0 65.93 0 64.94 124.48 226.77"/><polygon class="cls-9" points="124.01 227.14 123.53 227.51 0 66.92 0 65.93 124.01 227.14"/><polygon class="cls-10" points="123.53 227.51 123.05 227.88 0 67.92 0 66.92 123.53 227.51"/><polygon class="cls-11" points="123.05 227.88 122.57 228.25 0 68.91 0 67.92 123.05 227.88"/><polygon class="cls-12" points="122.57 228.25 122.09 228.62 0 69.9 0 68.91 122.57 228.25"/><polygon class="cls-13" points="122.09 228.62 121.61 228.98 0 70.89 0 69.9 122.09 228.62"/><polygon class="cls-14" points="121.61 228.98 121.13 229.35 0 71.88 0 70.89 121.61 228.98"/><polygon class="cls-15" points="121.13 229.35 120.65 229.72 0 72.88 0 71.88 121.13 229.35"/><polygon class="cls-16" points="120.65 229.72 120.17 230.09 0 73.87 0 72.88 120.65 229.72"/><polygon class="cls-17" points="120.17 230.09 119.69 230.46 0 74.86 0 73.87 120.17 230.09"/><polygon class="cls-18" points="119.69 230.46 119.21 230.83 0 75.85 0 74.86 119.69 230.46"/><polygon class="cls-19" points="119.21 230.83 118.73 231.2 0 76.84 0 75.85 119.21 230.83"/><polygon class="cls-20" points="118.73 231.2 118.25 231.57 0 77.84 0 76.84 118.73 231.2"/><polygon class="cls-21" points="118.25 231.57 117.77 231.93 0 78.83 0 77.84 118.25 231.57"/><polygon class="cls-22" points="117.77 231.93 117.3 232.3 0 79.82 0 78.83 117.77 231.93"/><polygon class="cls-23" points="117.3 232.3 116.81 232.67 0 80.81 0 79.82 117.3 232.3"/><polygon class="cls-24" points="116.81 232.67 116.34 233.04 0 81.8 0 80.81 116.81 232.67"/><polygon class="cls-25" points="116.34 233.04 115.86 233.41 0 82.8 0 81.8 116.34 233.04"/><polygon class="cls-26" points="115.86 233.41 115.38 233.78 0 83.79 0 82.8 115.86 233.41"/><polygon class="cls-27" points="115.38 233.78 114.9 234.15 0 84.78 0 83.79 115.38 233.78"/><polygon class="cls-28" points="114.9 234.15 114.42 234.52 0 85.77 0 84.78 114.9 234.15"/><polygon class="cls-29" points="114.42 234.52 113.94 234.88 0 86.76 0 85.77 114.42 234.52"/><polygon class="cls-30" points="113.94 234.88 113.46 235.25 0 87.76 0 86.76 113.94 234.88"/><polygon class="cls-31" points="113.46 235.25 112.98 235.62 0 88.75 0 87.76 113.46 235.25"/><polygon class="cls-32" points="112.98 235.62 112.5 235.99 0 89.74 0 88.75 112.98 235.62"/><polygon class="cls-33" points="112.5 235.99 112.02 236.36 0 90.73 0 89.74 112.5 235.99"/><polygon class="cls-34" points="112.02 236.36 111.54 236.73 0 91.72 0 90.73 112.02 236.36"/><polygon class="cls-35" points="111.54 236.73 111.06 237.1 0 92.72 0 91.72 111.54 236.73"/><polygon class="cls-36" points="111.06 237.1 111.06 237.1 110.3 237.1 0 93.71 0 92.72 111.06 237.1"/><polygon class="cls-37" points="109.54 237.1 0 94.7 0 93.71 110.3 237.1 109.54 237.1"/><polygon class="cls-38" points="108.78 237.1 0 95.69 0 94.7 109.54 237.1 108.78 237.1"/><polygon class="cls-39" points="108.01 237.1 0 96.68 0 95.69 108.78 237.1 108.01 237.1"/><polygon class="cls-40" points="107.25 237.1 0 97.67 0 96.68 108.01 237.1 107.25 237.1"/><polygon class="cls-41" points="106.49 237.1 0 98.67 0 97.67 107.25 237.1 106.49 237.1"/><polygon class="cls-42" points="105.72 237.1 0 99.66 0 98.67 106.49 237.1 105.72 237.1"/><polygon class="cls-43" points="104.96 237.1 0 100.65 0 99.66 105.72 237.1 104.96 237.1"/><polygon class="cls-44" points="104.2 237.1 0 101.64 0 100.65 104.96 237.1 104.2 237.1"/><polygon class="cls-45" points="103.44 237.1 0 102.64 0 101.64 104.2 237.1 103.44 237.1"/><polygon class="cls-46" points="102.67 237.1 0 103.63 0 102.64 103.44 237.1 102.67 237.1"/><polygon class="cls-47" points="101.91 237.1 0 104.62 0 103.63 102.67 237.1 101.91 237.1"/><polygon class="cls-48" points="101.15 237.1 0 105.61 0 104.62 101.91 237.1 101.15 237.1"/><polygon class="cls-49" points="100.38 237.1 0 106.6 0 105.61 101.15 237.1 100.38 237.1"/><polygon class="cls-50" points="99.62 237.1 0 107.59 0 106.6 100.38 237.1 99.62 237.1"/><polygon class="cls-51" points="98.86 237.1 0 108.59 0 107.59 99.62 237.1 98.86 237.1"/><polygon class="cls-52" points="98.09 237.1 0 109.58 0 108.59 98.86 237.1 98.09 237.1"/><polygon class="cls-53" points="97.33 237.1 0 110.57 0 109.58 98.09 237.1 97.33 237.1"/><polygon class="cls-54" points="96.57 237.1 0 111.56 0 110.57 97.33 237.1 96.57 237.1"/><polygon class="cls-55" points="95.81 237.1 0 112.55 0 111.56 96.57 237.1 95.81 237.1"/><polygon class="cls-56" points="95.04 237.1 0 113.55 0 112.55 95.81 237.1 95.04 237.1"/><polygon class="cls-57" points="94.28 237.1 0 114.54 0 113.55 95.04 237.1 94.28 237.1"/><polygon class="cls-58" points="93.52 237.1 0 115.53 0 114.54 94.28 237.1 93.52 237.1"/><polygon class="cls-59" points="92.75 237.1 0 116.52 0 115.53 93.52 237.1 92.75 237.1"/><polygon class="cls-60" points="91.99 237.1 0 117.51 0 116.52 92.75 237.1 91.99 237.1"/><polygon class="cls-61" points="91.23 237.1 0 118.51 0 117.51 91.99 237.1 91.23 237.1"/><polygon class="cls-62" points="90.46 237.1 0 119.5 0 118.51 91.23 237.1 90.46 237.1"/><polygon class="cls-63" points="89.7 237.1 0 120.49 0 119.5 90.46 237.1 89.7 237.1"/><polygon class="cls-64" points="88.94 237.1 0 121.48 0 120.49 89.7 237.1 88.94 237.1"/><polygon class="cls-65" points="88.17 237.1 0 122.47 0 121.48 88.94 237.1 88.17 237.1"/><polygon class="cls-66" points="87.41 237.1 0 123.47 0 122.47 88.17 237.1 87.41 237.1"/><polygon class="cls-67" points="86.65 237.1 0 124.46 0 123.47 87.41 237.1 86.65 237.1"/><polygon class="cls-68" points="85.89 237.1 0 125.45 0 124.46 86.65 237.1 85.89 237.1"/><polygon class="cls-69" points="85.12 237.1 0 126.44 0 125.45 85.89 237.1 85.12 237.1"/><polygon class="cls-70" points="84.36 237.1 0 127.43 0 126.44 85.12 237.1 84.36 237.1"/><polygon class="cls-71" points="83.6 237.1 0 128.43 0 127.43 84.36 237.1 83.6 237.1"/><polygon class="cls-72" points="82.83 237.1 0 129.42 0 128.43 83.6 237.1 82.83 237.1"/><polygon class="cls-73" points="82.07 237.1 0 130.41 0 129.42 82.83 237.1 82.07 237.1"/><polygon class="cls-74" points="81.31 237.1 0 131.4 0 130.41 82.07 237.1 81.31 237.1"/><polygon class="cls-75" points="80.54 237.1 0 132.39 0 131.4 81.31 237.1 80.54 237.1"/><polygon class="cls-76" points="79.78 237.1 0 133.38 0 132.39 80.54 237.1 79.78 237.1"/><polygon class="cls-77" points="79.02 237.1 0 134.38 0 133.38 79.78 237.1 79.02 237.1"/><polygon class="cls-78" points="78.25 237.1 0 135.37 0 134.38 79.02 237.1 78.25 237.1"/><polygon class="cls-79" points="77.49 237.1 0 136.36 0 135.37 78.25 237.1 77.49 237.1"/><polygon class="cls-80" points="76.73 237.1 0 137.35 0 136.36 77.49 237.1 76.73 237.1"/><polygon class="cls-81" points="75.97 237.1 0 138.34 0 137.35 76.73 237.1 75.97 237.1"/><polygon class="cls-82" points="75.2 237.1 0 139.34 0 138.34 75.97 237.1 75.2 237.1"/><polygon class="cls-83" points="74.44 237.1 0 140.33 0 139.34 75.2 237.1 74.44 237.1"/><polygon class="cls-84" points="73.68 237.1 0 141.32 0 140.33 74.44 237.1 73.68 237.1"/><polygon class="cls-85" points="72.91 237.1 0 142.31 0 141.32 73.68 237.1 72.91 237.1"/><polygon class="cls-86" points="72.15 237.1 0 143.3 0 142.31 72.91 237.1 72.15 237.1"/><polygon class="cls-87" points="71.39 237.1 0 144.3 0 143.3 72.15 237.1 71.39 237.1"/><polygon class="cls-88" points="70.63 237.1 0 145.29 0 144.3 71.39 237.1 70.63 237.1"/><polygon class="cls-89" points="69.86 237.1 0 146.28 0 145.29 70.63 237.1 69.86 237.1"/><polygon class="cls-90" points="69.1 237.1 0 147.27 0 146.28 69.86 237.1 69.1 237.1"/><polygon class="cls-91" points="68.34 237.1 0 148.26 0 147.27 69.1 237.1 68.34 237.1"/><polygon class="cls-92" points="67.57 237.1 0 149.26 0 148.26 68.34 237.1 67.57 237.1"/><polygon class="cls-93" points="66.81 237.1 0 150.25 0 149.26 67.57 237.1 66.81 237.1"/><polygon class="cls-94" points="66.05 237.1 0 151.24 0 150.25 66.81 237.1 66.05 237.1"/><polygon class="cls-95" points="65.28 237.1 0 152.23 0 151.24 66.05 237.1 65.28 237.1"/><polygon class="cls-96" points="64.52 237.1 0 153.22 0 152.23 65.28 237.1 64.52 237.1"/><polygon class="cls-97" points="63.76 237.1 0 154.22 0 153.22 64.52 237.1 63.76 237.1"/><polygon class="cls-98" points="62.99 237.1 0 155.21 0 154.22 63.76 237.1 62.99 237.1"/><polygon class="cls-99" points="62.23 237.1 0 156.2 0 155.21 62.99 237.1 62.23 237.1"/><polygon class="cls-100" points="61.47 237.1 0 157.19 0 156.2 62.23 237.1 61.47 237.1"/><polygon class="cls-101" points="60.7 237.1 0 158.18 0 157.19 61.47 237.1 60.7 237.1"/><polygon class="cls-102" points="59.94 237.1 0 159.18 0 158.18 60.7 237.1 59.94 237.1"/><polygon class="cls-103" points="59.18 237.1 0 160.17 0 159.18 59.94 237.1 59.18 237.1"/><polygon class="cls-104" points="58.42 237.1 0 161.16 0 160.17 59.18 237.1 58.42 237.1"/><polygon class="cls-105" points="57.65 237.1 0 162.15 0 161.16 58.42 237.1 57.65 237.1"/><polygon class="cls-106" points="56.89 237.1 0 163.14 0 162.15 57.65 237.1 56.89 237.1"/><polygon class="cls-107" points="56.13 237.1 0 164.13 0 163.14 56.89 237.1 56.13 237.1"/><polygon class="cls-108" points="55.36 237.1 0 165.13 0 164.13 56.13 237.1 55.36 237.1"/><polygon class="cls-109" points="54.6 237.1 0 166.12 0 165.13 55.36 237.1 54.6 237.1"/><polygon class="cls-110" points="53.84 237.1 0 167.11 0 166.12 54.6 237.1 53.84 237.1"/><polygon class="cls-111" points="53.08 237.1 0 168.1 0 167.11 53.84 237.1 53.08 237.1"/><polygon class="cls-112" points="52.31 237.1 0 169.09 0 168.1 53.08 237.1 52.31 237.1"/><polygon class="cls-113" points="51.55 237.1 0 170.09 0 169.09 52.31 237.1 51.55 237.1"/><polygon class="cls-114" points="50.79 237.1 0 171.08 0 170.09 51.55 237.1 50.79 237.1"/><polygon class="cls-115" points="50.02 237.1 0 172.07 0 171.08 50.79 237.1 50.02 237.1"/><polygon class="cls-116" points="49.26 237.1 0 173.06 0 172.07 50.02 237.1 49.26 237.1"/><polygon class="cls-117" points="48.5 237.1 0 174.06 0 173.06 49.26 237.1 48.5 237.1"/><polygon class="cls-118" points="47.73 237.1 0 175.05 0 174.06 48.5 237.1 47.73 237.1"/><polygon class="cls-119" points="46.97 237.1 0 176.04 0 175.05 47.73 237.1 46.97 237.1"/><polygon class="cls-120" points="46.21 237.1 0 177.03 0 176.04 46.97 237.1 46.21 237.1"/><polygon class="cls-121" points="45.45 237.1 0 178.02 0 177.03 46.21 237.1 45.45 237.1"/><polygon class="cls-122" points="44.68 237.1 0 179.01 0 178.02 45.45 237.1 44.68 237.1"/><polygon class="cls-123" points="43.92 237.1 0 180.01 0 179.01 44.68 237.1 43.92 237.1"/><polygon class="cls-124" points="43.16 237.1 0 181 0 180.01 43.92 237.1 43.16 237.1"/><polygon class="cls-125" points="42.39 237.1 0 181.99 0 181 43.16 237.1 42.39 237.1"/><polygon class="cls-126" points="41.63 237.1 0 182.98 0 181.99 42.39 237.1 41.63 237.1"/><polygon class="cls-127" points="40.87 237.1 0 183.97 0 182.98 41.63 237.1 40.87 237.1"/><polygon class="cls-128" points="40.1 237.1 0 184.97 0 183.97 40.87 237.1 40.1 237.1"/><polygon class="cls-129" points="39.34 237.1 0 185.96 0 184.97 40.1 237.1 39.34 237.1"/><polygon class="cls-129" points="0 185.96 39.34 237.1 0 237.1 0 185.96"/></g><g class="cls-130"><polygon class="cls-129" points="0 154.86 97.62 237.1 0 237.1 0 154.86"/><polygon class="cls-129" points="0 153.32 99.44 237.1 97.62 237.1 0 154.86 0 153.32"/><polygon class="cls-128" points="0 151.79 101.26 237.1 99.44 237.1 0 153.32 0 151.79"/><polygon class="cls-127" points="0 150.26 103.08 237.1 101.26 237.1 0 151.79 0 150.26"/><polygon class="cls-126" points="0 148.72 104.9 237.1 103.08 237.1 0 150.26 0 148.72"/><polygon class="cls-125" points="0 147.19 106.72 237.1 104.9 237.1 0 148.72 0 147.19"/><polygon class="cls-124" points="0 145.65 108.55 237.1 106.72 237.1 0 147.19 0 145.65"/><polygon class="cls-123" points="0 144.12 110.37 237.1 108.55 237.1 0 145.65 0 144.12"/><polygon class="cls-122" points="0 142.59 112.19 237.1 110.37 237.1 0 144.12 0 142.59"/><polygon class="cls-121" points="0 141.05 114.01 237.1 112.19 237.1 0 142.59 0 141.05"/><polygon class="cls-120" points="0 139.52 115.83 237.1 114.01 237.1 0 141.05 0 139.52"/><polygon class="cls-119" points="0 137.98 117.65 237.1 115.83 237.1 0 139.52 0 137.98"/><polygon class="cls-118" points="0 136.45 119.47 237.1 117.65 237.1 0 137.98 0 136.45"/><polygon class="cls-117" points="0 134.91 121.29 237.1 119.47 237.1 0 136.45 0 134.91"/><polygon class="cls-116" points="0 133.38 123.11 237.1 121.29 237.1 0 134.91 0 133.38"/><polygon class="cls-115" points="0 131.85 124.94 237.1 123.11 237.1 0 133.38 0 131.85"/><polygon class="cls-114" points="0 130.31 126.76 237.1 124.94 237.1 0 131.85 0 130.31"/><polygon class="cls-113" points="0 128.78 128.58 237.1 126.76 237.1 0 130.31 0 128.78"/><polygon class="cls-112" points="0 127.24 130.4 237.1 128.58 237.1 0 128.78 0 127.24"/><polygon class="cls-111" points="0 125.71 132.22 237.1 130.4 237.1 0 127.24 0 125.71"/><polygon class="cls-110" points="0 124.18 134.04 237.1 132.22 237.1 0 125.71 0 124.18"/><polygon class="cls-109" points="0 122.64 135.86 237.1 134.04 237.1 0 124.18 0 122.64"/><polygon class="cls-108" points="0 121.11 136.66 236.24 135.94 237.1 135.86 237.1 0 122.64 0 121.11"/><polygon class="cls-107" points="0 119.57 137.42 235.34 136.66 236.24 0 121.11 0 119.57"/><polygon class="cls-106" points="0 118.04 138.17 234.45 137.42 235.34 0 119.57 0 118.04"/><polygon class="cls-105" points="0 116.5 138.93 233.55 138.17 234.45 0 118.04 0 116.5"/><polygon class="cls-104" points="0 114.97 139.69 232.65 138.93 233.55 0 116.5 0 114.97"/><polygon class="cls-103" points="0 113.44 140.44 231.75 139.69 232.65 0 114.97 0 113.44"/><polygon class="cls-102" points="0 111.9 141.2 230.86 140.44 231.75 0 113.44 0 111.9"/><polygon class="cls-101" points="0 110.37 141.95 229.96 141.2 230.86 0 111.9 0 110.37"/><polygon class="cls-100" points="0 108.83 142.71 229.06 141.95 229.96 0 110.37 0 108.83"/><polygon class="cls-99" points="0 107.3 143.47 228.16 142.71 229.06 0 108.83 0 107.3"/><polygon class="cls-98" points="0 105.77 144.22 227.27 143.47 228.16 0 107.3 0 105.77"/><polygon class="cls-97" points="0 104.23 144.98 226.37 144.22 227.27 0 105.77 0 104.23"/><polygon class="cls-96" points="0 102.7 145.73 225.47 144.98 226.37 0 104.23 0 102.7"/><polygon class="cls-95" points="0 101.16 146.49 224.58 145.73 225.47 0 102.7 0 101.16"/><polygon class="cls-94" points="0 99.63 147.25 223.68 146.49 224.58 0 101.16 0 99.63"/><polygon class="cls-93" points="0 98.09 148 222.78 147.25 223.68 0 99.63 0 98.09"/><polygon class="cls-92" points="0 96.56 148.76 221.88 148 222.78 0 98.09 0 96.56"/><polygon class="cls-91" points="0 95.03 149.51 220.99 148.76 221.88 0 96.56 0 95.03"/><polygon class="cls-90" points="0 93.49 150.27 220.09 149.51 220.99 0 95.03 0 93.49"/><polygon class="cls-89" points="0 91.96 151.03 219.19 150.27 220.09 0 93.49 0 91.96"/><polygon class="cls-88" points="0 90.42 151.78 218.29 151.03 219.19 0 91.96 0 90.42"/><polygon class="cls-87" points="0 88.89 152.54 217.4 151.78 218.29 0 90.42 0 88.89"/><polygon class="cls-86" points="0 87.36 153.29 216.5 152.54 217.4 0 88.89 0 87.36"/><polygon class="cls-85" points="0 85.82 154.05 215.6 153.29 216.5 0 87.36 0 85.82"/><polygon class="cls-84" points="0 84.29 154.81 214.71 154.05 215.6 0 85.82 0 84.29"/><polygon class="cls-83" points="0 82.75 155.56 213.81 154.81 214.71 0 84.29 0 82.75"/><polygon class="cls-82" points="0 81.22 156.32 212.91 155.56 213.81 0 82.75 0 81.22"/><polygon class="cls-81" points="0 79.69 157.07 212.01 156.32 212.91 0 81.22 0 79.69"/><polygon class="cls-80" points="0 78.15 157.83 211.12 157.07 212.01 0 79.69 0 78.15"/><polygon class="cls-79" points="0 76.62 158.59 210.22 157.83 211.12 0 78.15 0 76.62"/><polygon class="cls-78" points="0 75.08 159.34 209.32 158.59 210.22 0 76.62 0 75.08"/><polygon class="cls-77" points="0 73.55 160.1 208.42 159.34 209.32 0 75.08 0 73.55"/><polygon class="cls-76" points="0 72.01 160.85 207.53 160.1 208.42 0 73.55 0 72.01"/><polygon class="cls-75" points="0 70.48 161.61 206.63 160.85 207.53 0 72.01 0 70.48"/><polygon class="cls-74" points="0 68.95 162.36 205.73 161.61 206.63 0 70.48 0 68.95"/><polygon class="cls-73" points="0 67.41 163.12 204.84 162.36 205.73 0 68.95 0 67.41"/><polygon class="cls-72" points="0 65.88 163.88 203.94 163.12 204.84 0 67.41 0 65.88"/><polygon class="cls-71" points="0 64.34 164.63 203.04 163.88 203.94 0 65.88 0 64.34"/><polygon class="cls-70" points="0 62.81 165.39 202.14 164.63 203.04 0 64.34 0 62.81"/><polygon class="cls-69" points="0 61.27 166.14 201.25 165.39 202.14 0 62.81 0 61.27"/><polygon class="cls-68" points="0 59.74 166.9 200.35 166.14 201.25 0 61.27 0 59.74"/><polygon class="cls-67" points="0 58.21 167.66 199.45 166.9 200.35 0 59.74 0 58.21"/><polygon class="cls-66" points="0 56.67 168.41 198.55 167.66 199.45 0 58.21 0 56.67"/><polygon class="cls-65" points="0 55.14 169.17 197.66 168.41 198.55 0 56.67 0 55.14"/><polygon class="cls-64" points="0 53.6 169.92 196.76 169.17 197.66 0 55.14 0 53.6"/><polygon class="cls-63" points="0 52.07 170.68 195.86 169.92 196.76 0 53.6 0 52.07"/><polygon class="cls-62" points="0 50.54 171.44 194.97 170.68 195.86 0 52.07 0 50.54"/><polygon class="cls-61" points="0 49 172.19 194.07 171.44 194.97 0 50.54 0 49"/><polygon class="cls-60" points="0 47.47 172.95 193.17 172.19 194.07 0 49 0 47.47"/><polygon class="cls-59" points="0 45.93 173.7 192.27 172.95 193.17 0 47.47 0 45.93"/><polygon class="cls-58" points="0 44.4 174.46 191.38 173.7 192.27 0 45.93 0 44.4"/><polygon class="cls-57" points="0 42.87 175.22 190.48 174.46 191.38 0 44.4 0 42.87"/><polygon class="cls-56" points="0 41.33 175.97 189.58 175.22 190.48 0 42.87 0 41.33"/><polygon class="cls-55" points="0 39.8 176.73 188.68 175.97 189.58 0 41.33 0 39.8"/><polygon class="cls-54" points="0 38.26 177.48 187.79 176.73 188.68 0 39.8 0 38.26"/><polygon class="cls-53" points="0 36.73 178.24 186.89 177.48 187.79 0 38.26 0 36.73"/><polygon class="cls-52" points="0 35.2 179 185.99 178.24 186.89 0 36.73 0 35.2"/><polygon class="cls-51" points="0 33.66 179.75 185.09 179 185.99 0 35.2 0 33.66"/><polygon class="cls-50" points="0 32.13 180.36 184.07 180.36 184.37 179.75 185.09 0 33.66 0 32.13"/><polygon class="cls-49" points="0 30.59 180.36 182.54 180.36 184.07 0 32.13 0 30.59"/><polygon class="cls-48" points="0 29.06 180.36 181 180.36 182.54 0 30.59 0 29.06"/><polygon class="cls-47" points="0 27.52 180.36 179.47 180.36 181 0 29.06 0 27.52"/><polygon class="cls-46" points="0 25.99 180.36 177.94 180.36 179.47 0 27.52 0 25.99"/><polygon class="cls-45" points="0 24.46 180.36 176.4 180.36 177.94 0 25.99 0 24.46"/><polygon class="cls-44" points="0 22.92 180.36 174.87 180.36 176.4 0 24.46 0 22.92"/><polygon class="cls-43" points="0 21.39 180.36 173.33 180.36 174.87 0 22.92 0 21.39"/><polygon class="cls-42" points="0 19.85 180.36 171.8 180.36 173.33 0 21.39 0 19.85"/><polygon class="cls-41" points="0 18.32 180.36 170.26 180.36 171.8 0 19.85 0 18.32"/><polygon class="cls-40" points="0 16.79 180.36 168.73 180.36 170.26 0 18.32 0 16.79"/><polygon class="cls-39" points="0 15.25 180.36 167.2 180.36 168.73 0 16.79 0 15.25"/><polygon class="cls-38" points="0 13.72 180.36 165.66 180.36 167.2 0 15.25 0 13.72"/><polygon class="cls-37" points="0 12.18 180.36 164.13 180.36 165.66 0 13.72 0 12.18"/><polygon class="cls-36" points="0 10.65 180.36 162.59 180.36 164.13 0 12.18 0 10.65"/><polygon class="cls-35" points="0 9.11 180.36 161.06 180.36 162.59 0 10.65 0 9.11"/><polygon class="cls-34" points="0 7.58 180.36 159.53 180.36 161.06 0 9.11 0 7.58"/><polygon class="cls-33" points="0 6.05 180.36 157.99 180.36 159.53 0 7.58 0 6.05"/><polygon class="cls-32" points="0 4.51 180.36 156.46 180.36 157.99 0 6.05 0 4.51"/><polygon class="cls-31" points="0 2.98 180.36 154.92 180.36 156.46 0 4.51 0 2.98"/><polygon class="cls-30" points="0 1.44 180.36 153.39 180.36 154.92 0 2.98 0 1.44"/><polygon class="cls-29" points="0.11 0 180.36 151.85 180.36 153.39 0 1.44 0 0 0.11 0"/><polygon class="cls-28" points="1.93 0 180.36 150.32 180.36 151.85 0.11 0 1.93 0"/><polygon class="cls-27" points="3.75 0 180.36 148.79 180.36 150.32 1.93 0 3.75 0"/><polygon class="cls-26" points="5.57 0 180.36 147.25 180.36 148.79 3.75 0 5.57 0"/><polygon class="cls-25" points="7.39 0 180.36 145.72 180.36 147.25 5.57 0 7.39 0"/><polygon class="cls-24" points="9.21 0 180.36 144.19 180.36 145.72 7.39 0 9.21 0"/><polygon class="cls-23" points="11.03 0 180.36 142.65 180.36 144.19 9.21 0 11.03 0"/><polygon class="cls-22" points="12.86 0 180.36 141.12 180.36 142.65 11.03 0 12.86 0"/><polygon class="cls-21" points="14.68 0 180.36 139.58 180.36 141.12 12.86 0 14.68 0"/><polygon class="cls-20" points="16.5 0 180.36 138.05 180.36 139.58 14.68 0 16.5 0"/><polygon class="cls-19" points="18.32 0 180.36 136.51 180.36 138.05 16.5 0 18.32 0"/><polygon class="cls-18" points="20.14 0 180.36 134.98 180.36 136.51 18.32 0 20.14 0"/><polygon class="cls-17" points="21.96 0 180.36 133.44 180.36 134.98 20.14 0 21.96 0"/><polygon class="cls-16" points="23.78 0 180.36 131.91 180.36 133.44 21.96 0 23.78 0"/><polygon class="cls-15" points="25.6 0 180.36 130.38 180.36 131.91 23.78 0 25.6 0"/><polygon class="cls-14" points="27.42 0 180.36 128.84 180.36 130.38 25.6 0 27.42 0"/><polygon class="cls-13" points="29.24 0 180.36 127.31 180.36 128.84 27.42 0 29.24 0"/><polygon class="cls-12" points="31.07 0 180.36 125.78 180.36 127.31 29.24 0 31.07 0"/><polygon class="cls-11" points="32.89 0 180.36 124.24 180.36 125.78 31.07 0 32.89 0"/><polygon class="cls-10" points="34.71 0 180.36 122.71 180.36 124.24 32.89 0 34.71 0"/><polygon class="cls-9" points="36.53 0 180.36 121.17 180.36 122.71 34.71 0 36.53 0"/><polygon class="cls-8" points="38.35 0 180.36 119.64 180.36 121.17 36.53 0 38.35 0"/><polygon class="cls-7" points="40.17 0 180.36 118.1 180.36 119.64 38.35 0 40.17 0"/><polygon class="cls-6" points="41.99 0 180.36 116.57 180.36 118.1 40.17 0 41.99 0"/><polygon class="cls-5" points="43.81 0 180.36 115.04 180.36 116.57 41.99 0 43.81 0"/><polygon class="cls-4" points="45.63 0 180.36 113.5 180.36 115.04 43.81 0 45.63 0"/><polygon class="cls-3" points="47.45 0 180.36 111.97 180.36 113.5 45.63 0 47.45 0"/><polygon class="cls-3" points="180.36 111.97 47.45 0 180.36 0 180.36 111.97"/></g><g class="cls-131"><polygon class="cls-132" points="247.76 11.95 247.31 11.62 247.76 11.62 247.76 11.95"/><polygon class="cls-133" points="247.76 12.85 246.1 11.62 247.31 11.62 247.76 11.95 247.76 12.85"/><polygon class="cls-134" points="247.76 13.74 244.89 11.62 246.1 11.62 247.76 12.85 247.76 13.74"/><polygon class="cls-135" points="247.76 14.64 243.68 11.62 244.89 11.62 247.76 13.74 247.76 14.64"/><polygon class="cls-136" points="247.76 15.53 242.47 11.62 243.68 11.62 247.76 14.64 247.76 15.53"/><polygon class="cls-137" points="247.76 16.43 241.27 11.62 242.47 11.62 247.76 15.53 247.76 16.43"/><polygon class="cls-138" points="247.76 17.32 240.06 11.62 241.27 11.62 247.76 16.43 247.76 17.32"/><polygon class="cls-139" points="247.76 18.21 238.85 11.62 240.06 11.62 247.76 17.32 247.76 18.21"/><polygon class="cls-140" points="247.76 19.11 237.64 11.62 238.85 11.62 247.76 18.21 247.76 19.11"/><polygon class="cls-141" points="247.76 20 236.43 11.62 237.64 11.62 247.76 19.11 247.76 20"/><polygon class="cls-142" points="247.76 20.9 235.22 11.62 236.43 11.62 247.76 20 247.76 20.9"/><polygon class="cls-143" points="247.76 21.79 234.01 11.62 235.22 11.62 247.76 20.9 247.76 21.79"/><polygon class="cls-144" points="247.76 22.69 232.8 11.62 234.01 11.62 247.76 21.79 247.76 22.69"/><polygon class="cls-145" points="247.76 23.58 231.59 11.62 232.8 11.62 247.76 22.69 247.76 23.58"/><polygon class="cls-146" points="247.76 24.48 230.38 11.62 231.59 11.62 247.76 23.58 247.76 24.48"/><polygon class="cls-147" points="247.76 25.37 229.18 11.62 230.38 11.62 247.76 24.48 247.76 25.37"/><polygon class="cls-148" points="247.76 26.27 227.97 11.62 229.18 11.62 247.76 25.37 247.76 26.27"/><polygon class="cls-149" points="247.76 27.16 226.76 11.62 227.97 11.62 247.76 26.27 247.76 27.16"/><polygon class="cls-150" points="247.76 28.06 225.55 11.62 226.76 11.62 247.76 27.16 247.76 28.06"/><polygon class="cls-151" points="247.76 28.95 224.34 11.62 225.55 11.62 247.76 28.06 247.76 28.95"/><polygon class="cls-152" points="247.76 29.85 223.13 11.62 224.34 11.62 247.76 28.95 247.76 29.85"/><polygon class="cls-153" points="247.76 30.74 221.92 11.62 223.13 11.62 247.76 29.85 247.76 30.74"/><polygon class="cls-154" points="247.76 31.64 220.71 11.62 221.92 11.62 247.76 30.74 247.76 31.64"/><polygon class="cls-155" points="247.76 32.53 219.5 11.62 220.71 11.62 247.76 31.64 247.76 32.53"/><polygon class="cls-156" points="247.76 33.43 218.29 11.62 219.5 11.62 247.76 32.53 247.76 33.43"/><polygon class="cls-157" points="247.76 34.32 217.08 11.62 218.29 11.62 247.76 33.43 247.76 34.32"/><polygon class="cls-158" points="247.76 35.22 215.87 11.62 217.08 11.62 247.76 34.32 247.76 35.22"/><polygon class="cls-159" points="247.76 36.11 214.66 11.62 215.87 11.62 247.76 35.22 247.76 36.11"/><polygon class="cls-160" points="247.76 37.01 213.46 11.62 214.66 11.62 247.76 36.11 247.76 37.01"/><polygon class="cls-161" points="247.76 37.9 212.25 11.62 213.46 11.62 247.76 37.01 247.76 37.9"/><polygon class="cls-162" points="247.76 38.8 211.04 11.62 212.25 11.62 247.76 37.9 247.76 38.8"/><polygon class="cls-163" points="247.76 39.69 209.83 11.62 211.04 11.62 247.76 38.8 247.76 39.69"/><polygon class="cls-164" points="247.76 40.58 208.62 11.62 209.83 11.62 247.76 39.69 247.76 40.58"/><polygon class="cls-165" points="247.76 41.48 207.41 11.62 208.62 11.62 247.76 40.58 247.76 41.48"/><polygon class="cls-166" points="247.76 42.37 206.2 11.62 207.41 11.62 247.76 41.48 247.76 42.37"/><polygon class="cls-167" points="247.76 43.27 204.99 11.62 206.2 11.62 247.76 42.37 247.76 43.27"/><polygon class="cls-168" points="247.76 44.16 203.78 11.62 204.99 11.62 247.76 43.27 247.76 44.16"/><polygon class="cls-169" points="247.76 45.06 202.57 11.62 203.78 11.62 247.76 44.16 247.76 45.06"/><polygon class="cls-170" points="247.76 45.95 201.36 11.62 202.57 11.62 247.76 45.06 247.76 45.95"/><polygon class="cls-171" points="247.76 46.85 200.16 11.62 201.36 11.62 247.76 45.95 247.76 46.85"/><polygon class="cls-172" points="247.76 47.74 198.95 11.62 200.16 11.62 247.76 46.85 247.76 47.74"/><polygon class="cls-173" points="247.76 48.64 197.74 11.62 198.95 11.62 247.76 47.74 247.76 48.64"/><polygon class="cls-174" points="247.76 49.53 196.53 11.62 197.74 11.62 247.76 48.64 247.76 49.53"/><polygon class="cls-175" points="247.76 50.43 195.32 11.62 196.53 11.62 247.76 49.53 247.76 50.43"/><polygon class="cls-176" points="247.76 51.32 194.11 11.62 195.32 11.62 247.76 50.43 247.76 51.32"/><polygon class="cls-177" points="247.76 52.22 192.9 11.62 194.11 11.62 247.76 51.32 247.76 52.22"/><polygon class="cls-178" points="247.76 53.11 191.69 11.62 192.9 11.62 247.76 52.22 247.76 53.11"/><polygon class="cls-179" points="247.76 54.01 190.48 11.62 191.69 11.62 247.76 53.11 247.76 54.01"/><polygon class="cls-180" points="247.76 54.9 189.27 11.62 190.48 11.62 247.76 54.01 247.76 54.9"/><polygon class="cls-181" points="247.76 55.8 188.06 11.62 189.27 11.62 247.76 54.9 247.76 55.8"/><polygon class="cls-182" points="247.76 56.69 186.85 11.62 188.06 11.62 247.76 55.8 247.76 56.69"/><polygon class="cls-183" points="247.76 57.59 185.65 11.62 186.85 11.62 247.76 56.69 247.76 57.59"/><polygon class="cls-184" points="247.76 58.48 184.44 11.62 185.65 11.62 247.76 57.59 247.76 58.48"/><polygon class="cls-185" points="247.76 59.37 183.23 11.62 184.44 11.62 247.76 58.48 247.76 59.37"/><polygon class="cls-186" points="247.76 60.27 182.02 11.62 183.23 11.62 247.76 59.37 247.76 60.27"/><polygon class="cls-187" points="247.76 61.16 180.81 11.62 182.02 11.62 247.76 60.27 247.76 61.16"/><polygon class="cls-188" points="247.76 62.06 179.6 11.62 180.81 11.62 247.76 61.16 247.76 62.06"/><polygon class="cls-189" points="247.76 62.95 178.39 11.62 179.6 11.62 247.76 62.06 247.76 62.95"/><polygon class="cls-190" points="247.76 63.85 177.18 11.62 178.39 11.62 247.76 62.95 247.76 63.85"/><polygon class="cls-191" points="247.76 64.74 175.97 11.62 177.18 11.62 247.76 63.85 247.76 64.74"/><polygon class="cls-192" points="247.76 65.64 174.76 11.62 175.97 11.62 247.76 64.74 247.76 65.64"/><polygon class="cls-193" points="247.76 66.53 173.55 11.62 174.76 11.62 247.76 65.64 247.76 66.53"/><polygon class="cls-194" points="247.76 67.43 172.34 11.62 173.55 11.62 247.76 66.53 247.76 67.43"/><polygon class="cls-195" points="247.76 68.32 171.13 11.62 172.34 11.62 247.76 67.43 247.76 68.32"/><polygon class="cls-196" points="247.76 69.22 169.93 11.62 171.13 11.62 247.76 68.32 247.76 69.22"/><polygon class="cls-197" points="247.76 70.11 168.72 11.62 169.93 11.62 247.76 69.22 247.76 70.11"/><polygon class="cls-198" points="247.76 71.01 167.51 11.62 168.72 11.62 247.76 70.11 247.76 71.01"/><polygon class="cls-199" points="247.76 71.9 166.3 11.62 167.51 11.62 247.76 71.01 247.76 71.9"/><polygon class="cls-200" points="247.76 72.8 165.09 11.62 166.3 11.62 247.76 71.9 247.76 72.8"/><polygon class="cls-201" points="247.76 73.69 163.88 11.62 165.09 11.62 247.76 72.8 247.76 73.69"/><polygon class="cls-202" points="247.76 74.59 162.67 11.62 163.88 11.62 247.76 73.69 247.76 74.59"/><polygon class="cls-203" points="247.76 75.48 161.46 11.62 162.67 11.62 247.76 74.59 247.76 75.48"/><polygon class="cls-204" points="247.76 76.38 160.25 11.62 161.46 11.62 247.76 75.48 247.76 76.38"/><polygon class="cls-205" points="247.76 77.27 159.04 11.62 160.25 11.62 247.76 76.38 247.76 77.27"/><polygon class="cls-206" points="247.76 78.17 157.84 11.62 159.04 11.62 247.76 77.27 247.76 78.17"/><polygon class="cls-207" points="247.76 79.06 156.63 11.62 157.84 11.62 247.76 78.17 247.76 79.06"/><polygon class="cls-208" points="247.76 79.95 155.42 11.62 156.63 11.62 247.76 79.06 247.76 79.95"/><polygon class="cls-209" points="247.76 80.85 154.21 11.62 155.42 11.62 247.76 79.95 247.76 80.85"/><polygon class="cls-210" points="247.76 81.74 153 11.62 154.21 11.62 247.76 80.85 247.76 81.74"/><polygon class="cls-211" points="247.76 82.64 151.79 11.62 153 11.62 247.76 81.74 247.76 82.64"/><polygon class="cls-212" points="247.76 83.53 150.58 11.62 151.79 11.62 247.76 82.64 247.76 83.53"/><polygon class="cls-213" points="247.76 84.43 149.37 11.62 150.58 11.62 247.76 83.53 247.76 84.43"/><polygon class="cls-214" points="247.76 85.32 148.16 11.62 149.37 11.62 247.76 84.43 247.76 85.32"/><polygon class="cls-215" points="247.76 86.22 146.95 11.62 148.16 11.62 247.76 85.32 247.76 86.22"/><polygon class="cls-216" points="247.76 87.11 145.74 11.62 146.95 11.62 247.76 86.22 247.76 87.11"/><polygon class="cls-217" points="247.76 88.01 144.53 11.62 145.74 11.62 247.76 87.11 247.76 88.01"/><polygon class="cls-218" points="247.76 88.9 143.32 11.62 144.53 11.62 247.76 88.01 247.76 88.9"/><polygon class="cls-219" points="247.76 89.8 142.12 11.62 143.32 11.62 247.76 88.9 247.76 89.8"/><polygon class="cls-220" points="247.76 90.69 140.91 11.62 142.12 11.62 247.76 89.8 247.76 90.69"/><polygon class="cls-221" points="247.76 91.59 139.7 11.62 140.91 11.62 247.76 90.69 247.76 91.59"/><polygon class="cls-221" points="67.4 64.09 106.23 11.62 139.7 11.62 247.76 91.59 247.76 248.72 67.4 248.72 67.4 64.09"/></g><g class="cls-222"><polygon class="cls-223" points="67.4 64.57 67.87 64.08 247.76 237.64 247.76 248.72 67.4 248.72 67.4 64.57"/><polygon class="cls-223" points="67.87 64.08 68.49 63.45 247.76 236.41 247.76 237.64 67.87 64.08"/><polygon class="cls-224" points="68.49 63.45 69.1 62.81 247.76 235.18 247.76 236.41 68.49 63.45"/><polygon class="cls-225" points="69.1 62.81 69.72 62.17 247.76 233.95 247.76 235.18 69.1 62.81"/><polygon class="cls-226" points="69.72 62.17 70.33 61.53 247.76 232.72 247.76 233.95 69.72 62.17"/><polygon class="cls-227" points="70.33 61.53 70.94 60.9 247.76 231.49 247.76 232.72 70.33 61.53"/><polygon class="cls-228" points="70.94 60.9 71.56 60.26 247.76 230.26 247.76 231.49 70.94 60.9"/><polygon class="cls-229" points="71.56 60.26 72.17 59.62 247.76 229.03 247.76 230.26 71.56 60.26"/><polygon class="cls-230" points="72.17 59.62 72.79 58.99 247.76 227.8 247.76 229.03 72.17 59.62"/><polygon class="cls-231" points="72.79 58.99 73.4 58.35 247.76 226.57 247.76 227.8 72.79 58.99"/><polygon class="cls-232" points="73.4 58.35 74.02 57.71 247.76 225.34 247.76 226.57 73.4 58.35"/><polygon class="cls-233" points="74.02 57.71 74.63 57.08 247.76 224.11 247.76 225.34 74.02 57.71"/><polygon class="cls-234" points="74.63 57.08 75.25 56.44 247.76 222.88 247.76 224.11 74.63 57.08"/><polygon class="cls-235" points="75.25 56.44 75.86 55.8 247.76 221.65 247.76 222.88 75.25 56.44"/><polygon class="cls-236" points="75.86 55.8 76.47 55.16 247.76 220.42 247.76 221.65 75.86 55.8"/><polygon class="cls-237" points="76.47 55.16 77.09 54.53 247.76 219.19 247.76 220.42 76.47 55.16"/><polygon class="cls-238" points="77.09 54.53 77.7 53.89 247.76 217.96 247.76 219.19 77.09 54.53"/><polygon class="cls-239" points="77.7 53.89 78.32 53.25 247.76 216.73 247.76 217.96 77.7 53.89"/><polygon class="cls-240" points="78.32 53.25 78.93 52.62 247.76 215.5 247.76 216.73 78.32 53.25"/><polygon class="cls-241" points="78.93 52.62 79.55 51.98 247.76 214.27 247.76 215.5 78.93 52.62"/><polygon class="cls-242" points="79.55 51.98 80.16 51.34 247.76 213.04 247.76 214.27 79.55 51.98"/><polygon class="cls-243" points="80.16 51.34 80.78 50.71 247.76 211.81 247.76 213.04 80.16 51.34"/><polygon class="cls-244" points="80.78 50.71 81.39 50.07 247.76 210.58 247.76 211.81 80.78 50.71"/><polygon class="cls-245" points="81.39 50.07 82.01 49.43 247.76 209.35 247.76 210.58 81.39 50.07"/><polygon class="cls-246" points="82.01 49.43 82.62 48.8 247.76 208.12 247.76 209.35 82.01 49.43"/><polygon class="cls-247" points="82.62 48.8 83.23 48.16 247.76 206.89 247.76 208.12 82.62 48.8"/><polygon class="cls-248" points="83.23 48.16 83.85 47.52 247.76 205.66 247.76 206.89 83.23 48.16"/><polygon class="cls-249" points="83.85 47.52 84.46 46.88 247.76 204.43 247.76 205.66 83.85 47.52"/><polygon class="cls-250" points="84.46 46.88 85.08 46.25 247.76 203.2 247.76 204.43 84.46 46.88"/><polygon class="cls-251" points="85.08 46.25 85.69 45.61 247.76 201.97 247.76 203.2 85.08 46.25"/><polygon class="cls-252" points="85.69 45.61 86.31 44.97 247.76 200.74 247.76 201.97 85.69 45.61"/><polygon class="cls-253" points="86.31 44.97 86.92 44.34 247.76 199.51 247.76 200.74 86.31 44.97"/><polygon class="cls-254" points="86.92 44.34 87.54 43.7 247.76 198.28 247.76 199.51 86.92 44.34"/><polygon class="cls-255" points="87.54 43.7 88.15 43.06 247.76 197.05 247.76 198.28 87.54 43.7"/><polygon class="cls-256" points="88.15 43.06 88.77 42.43 247.76 195.82 247.76 197.05 88.15 43.06"/><polygon class="cls-257" points="88.77 42.43 89.38 41.79 247.76 194.59 247.76 195.82 88.77 42.43"/><polygon class="cls-258" points="89.38 41.79 90 41.15 247.76 193.36 247.76 194.59 89.38 41.79"/><polygon class="cls-259" points="90 41.15 90.61 40.52 247.76 192.13 247.76 193.36 90 41.15"/><polygon class="cls-260" points="90.61 40.52 91.22 39.88 247.76 190.9 247.76 192.13 90.61 40.52"/><polygon class="cls-261" points="91.22 39.88 91.84 39.24 247.76 189.67 247.76 190.9 91.22 39.88"/><polygon class="cls-262" points="91.84 39.24 92.45 38.6 247.76 188.44 247.76 189.67 91.84 39.24"/><polygon class="cls-263" points="92.45 38.6 93.07 37.97 247.76 187.21 247.76 188.44 92.45 38.6"/><polygon class="cls-264" points="93.07 37.97 93.68 37.33 247.76 185.98 247.76 187.21 93.07 37.97"/><polygon class="cls-265" points="93.68 37.33 94.3 36.69 247.76 184.75 247.76 185.98 93.68 37.33"/><polygon class="cls-266" points="94.3 36.69 94.91 36.06 247.76 183.52 247.76 184.75 94.3 36.69"/><polygon class="cls-267" points="94.91 36.06 95.53 35.42 247.76 182.29 247.76 183.52 94.91 36.06"/><polygon class="cls-268" points="95.53 35.42 96.14 34.78 247.76 181.06 247.76 182.29 95.53 35.42"/><polygon class="cls-269" points="96.14 34.78 96.75 34.15 247.76 179.83 247.76 181.06 96.14 34.78"/><polygon class="cls-270" points="96.75 34.15 97.37 33.51 247.76 178.6 247.76 179.83 96.75 34.15"/><polygon class="cls-271" points="97.37 33.51 97.98 32.87 247.76 177.37 247.76 178.6 97.37 33.51"/><polygon class="cls-272" points="97.98 32.87 98.6 32.23 247.76 176.14 247.76 177.37 97.98 32.87"/><polygon class="cls-273" points="98.6 32.23 99.21 31.6 247.76 174.91 247.76 176.14 98.6 32.23"/><polygon class="cls-274" points="99.21 31.6 99.83 30.96 247.76 173.68 247.76 174.91 99.21 31.6"/><polygon class="cls-275" points="99.83 30.96 100.44 30.32 247.76 172.45 247.76 173.68 99.83 30.96"/><polygon class="cls-276" points="100.44 30.32 101.06 29.69 247.76 171.22 247.76 172.45 100.44 30.32"/><polygon class="cls-277" points="101.06 29.69 101.67 29.05 247.76 169.99 247.76 171.22 101.06 29.69"/><polygon class="cls-278" points="101.67 29.05 102.29 28.41 247.76 168.76 247.76 169.99 101.67 29.05"/><polygon class="cls-279" points="102.29 28.41 102.9 27.77 247.76 167.53 247.76 168.76 102.29 28.41"/><polygon class="cls-280" points="102.9 27.77 103.52 27.14 247.76 166.3 247.76 167.53 102.9 27.77"/><polygon class="cls-281" points="103.52 27.14 104.13 26.5 247.76 165.07 247.76 166.3 103.52 27.14"/><polygon class="cls-282" points="104.13 26.5 104.75 25.86 247.76 163.84 247.76 165.07 104.13 26.5"/><polygon class="cls-283" points="104.75 25.86 105.36 25.23 247.76 162.61 247.76 163.84 104.75 25.86"/><polygon class="cls-284" points="105.36 25.23 105.97 24.59 247.76 161.38 247.76 162.61 105.36 25.23"/><polygon class="cls-285" points="105.97 24.59 106.59 23.95 247.76 160.15 247.76 161.38 105.97 24.59"/><polygon class="cls-286" points="106.59 23.95 107.2 23.32 247.76 158.92 247.76 160.15 106.59 23.95"/><polygon class="cls-287" points="107.2 23.32 107.82 22.68 247.76 157.69 247.76 158.92 107.2 23.32"/><polygon class="cls-288" points="107.82 22.68 108.43 22.04 247.76 156.46 247.76 157.69 107.82 22.68"/><polygon class="cls-289" points="108.43 22.04 109.05 21.41 247.76 155.23 247.76 156.46 108.43 22.04"/><polygon class="cls-290" points="109.05 21.41 109.66 20.77 247.76 154 247.76 155.23 109.05 21.41"/><polygon class="cls-291" points="109.66 20.77 110.28 20.13 247.76 152.77 247.76 154 109.66 20.77"/><polygon class="cls-292" points="110.28 20.13 110.89 19.49 247.76 151.54 247.76 152.77 110.28 20.13"/><polygon class="cls-293" points="110.89 19.49 111.5 18.86 247.76 150.31 247.76 151.54 110.89 19.49"/><polygon class="cls-294" points="111.5 18.86 112.12 18.22 247.76 149.08 247.76 150.31 111.5 18.86"/><polygon class="cls-295" points="112.12 18.22 112.73 17.58 247.76 147.85 247.76 149.08 112.12 18.22"/><polygon class="cls-296" points="112.73 17.58 113.35 16.95 247.76 146.62 247.76 147.85 112.73 17.58"/><polygon class="cls-297" points="113.35 16.95 113.96 16.31 247.76 145.4 247.76 146.62 113.35 16.95"/><polygon class="cls-298" points="113.96 16.31 114.58 15.67 247.76 144.16 247.76 145.4 113.96 16.31"/><polygon class="cls-299" points="114.58 15.67 115.19 15.04 247.76 142.94 247.76 144.16 114.58 15.67"/><polygon class="cls-300" points="115.19 15.04 115.81 14.4 247.76 141.71 247.76 142.94 115.19 15.04"/><polygon class="cls-301" points="115.81 14.4 116.42 13.76 247.76 140.47 247.76 141.71 115.81 14.4"/><polygon class="cls-302" points="116.42 13.76 117.04 13.13 247.76 139.25 247.76 140.47 116.42 13.76"/><polygon class="cls-303" points="117.04 13.13 117.65 12.49 247.76 138.01 247.76 139.25 117.04 13.13"/><polygon class="cls-304" points="117.65 12.49 118.27 11.85 247.76 136.78 247.76 138.01 117.65 12.49"/><polygon class="cls-305" points="118.27 11.85 118.49 11.62 119.3 11.62 247.76 135.56 247.76 136.78 118.27 11.85"/><polygon class="cls-306" points="120.58 11.62 247.76 134.32 247.76 135.56 119.3 11.62 120.58 11.62"/><polygon class="cls-307" points="121.85 11.62 247.76 133.1 247.76 134.32 120.58 11.62 121.85 11.62"/><polygon class="cls-308" points="123.13 11.62 247.76 131.87 247.76 133.1 121.85 11.62 123.13 11.62"/><polygon class="cls-309" points="124.4 11.62 247.76 130.64 247.76 131.87 123.13 11.62 124.4 11.62"/><polygon class="cls-310" points="125.67 11.62 247.76 129.41 247.76 130.64 124.4 11.62 125.67 11.62"/><polygon class="cls-311" points="126.95 11.62 247.76 128.18 247.76 129.41 125.67 11.62 126.95 11.62"/><polygon class="cls-312" points="128.22 11.62 247.76 126.95 247.76 128.18 126.95 11.62 128.22 11.62"/><polygon class="cls-313" points="129.5 11.62 247.76 125.72 247.76 126.95 128.22 11.62 129.5 11.62"/><polygon class="cls-314" points="130.77 11.62 247.76 124.49 247.76 125.72 129.5 11.62 130.77 11.62"/><polygon class="cls-315" points="132.05 11.62 247.76 123.26 247.76 124.49 130.77 11.62 132.05 11.62"/><polygon class="cls-316" points="133.32 11.62 247.76 122.03 247.76 123.26 132.05 11.62 133.32 11.62"/><polygon class="cls-317" points="134.6 11.62 247.76 120.8 247.76 122.03 133.32 11.62 134.6 11.62"/><polygon class="cls-318" points="135.87 11.62 247.76 119.57 247.76 120.8 134.6 11.62 135.87 11.62"/><polygon class="cls-319" points="137.15 11.62 247.76 118.34 247.76 119.57 135.87 11.62 137.15 11.62"/><polygon class="cls-320" points="138.42 11.62 247.76 117.11 247.76 118.34 137.15 11.62 138.42 11.62"/><polygon class="cls-321" points="139.7 11.62 247.76 115.88 247.76 117.11 138.42 11.62 139.7 11.62"/><polygon class="cls-322" points="140.97 11.62 247.76 114.65 247.76 115.88 139.7 11.62 140.97 11.62"/><polygon class="cls-323" points="142.25 11.62 247.76 113.42 247.76 114.65 140.97 11.62 142.25 11.62"/><polygon class="cls-324" points="143.52 11.62 247.76 112.19 247.76 113.42 142.25 11.62 143.52 11.62"/><polygon class="cls-325" points="144.8 11.62 247.76 110.96 247.76 112.19 143.52 11.62 144.8 11.62"/><polygon class="cls-326" points="146.07 11.62 247.76 109.73 247.76 110.96 144.8 11.62 146.07 11.62"/><polygon class="cls-327" points="147.35 11.62 247.76 108.5 247.76 109.73 146.07 11.62 147.35 11.62"/><polygon class="cls-328" points="148.62 11.62 247.76 107.27 247.76 108.5 147.35 11.62 148.62 11.62"/><polygon class="cls-329" points="149.9 11.62 247.76 106.04 247.76 107.27 148.62 11.62 149.9 11.62"/><polygon class="cls-330" points="151.17 11.62 247.76 104.81 247.76 106.04 149.9 11.62 151.17 11.62"/><polygon class="cls-331" points="152.44 11.62 247.76 103.58 247.76 104.81 151.17 11.62 152.44 11.62"/><polygon class="cls-332" points="153.72 11.62 247.76 102.35 247.76 103.58 152.44 11.62 153.72 11.62"/><polygon class="cls-333" points="155 11.62 247.76 101.12 247.76 102.35 153.72 11.62 155 11.62"/><polygon class="cls-334" points="156.27 11.62 247.76 99.89 247.76 101.12 155 11.62 156.27 11.62"/><polygon class="cls-335" points="157.54 11.62 247.76 98.66 247.76 99.89 156.27 11.62 157.54 11.62"/><polygon class="cls-336" points="158.82 11.62 247.76 97.43 247.76 98.66 157.54 11.62 158.82 11.62"/><polygon class="cls-337" points="160.09 11.62 247.76 96.2 247.76 97.43 158.82 11.62 160.09 11.62"/><polygon class="cls-338" points="161.37 11.62 247.76 94.97 247.76 96.2 160.09 11.62 161.37 11.62"/><polygon class="cls-338" points="247.76 94.97 161.37 11.62 247.76 11.62 247.76 94.97"/></g><text class="cls-339" transform="translate(326.34 179.75) scale(1.05 1)">nectb<tspan class="cls-340" x="475.97" y="0">o</tspan><tspan x="576.36" y="0">x</tspan></text></g></g></svg>